<?xml version="1.0" encoding="UTF-8" standalone="no"?>
<!-- Created with Inkscape (http://www.inkscape.org/) -->

<svg
   xmlns:dc="http://purl.org/dc/elements/1.1/"
   xmlns:cc="http://creativecommons.org/ns#"
   xmlns:rdf="http://www.w3.org/1999/02/22-rdf-syntax-ns#"
   xmlns:svg="http://www.w3.org/2000/svg"
   xmlns="http://www.w3.org/2000/svg"
   xmlns:xlink="http://www.w3.org/1999/xlink"
   xmlns:sodipodi="http://sodipodi.sourceforge.net/DTD/sodipodi-0.dtd"
   xmlns:inkscape="http://www.inkscape.org/namespaces/inkscape"
   id="svg2"
   version="1.1"
   inkscape:version="0.91 r13725"
   width="670.83636"
   height="312.87482"
   viewBox="0 0 670.83636 312.87482"
   sodipodi:docname="Daredevil_Logo.svg">
  <metadata
     id="metadata8">
    <rdf:RDF>
      <cc:Work
         rdf:about="">
        <dc:format>image/svg+xml</dc:format>
        <dc:type
           rdf:resource="http://purl.org/dc/dcmitype/StillImage" />
        <dc:title />
      </cc:Work>
    </rdf:RDF>
  </metadata>
  <defs
     id="defs6">
    <linearGradient
       id="linearGradient4537"
       inkscape:collect="always">
      <stop
         id="stop4539"
         offset="0"
         style="stop-color:#b7171e;stop-opacity:1" />
      <stop
         id="stop4541"
         offset="1"
         style="stop-color:#790b09;stop-opacity:1" />
    </linearGradient>
    <linearGradient
       inkscape:collect="always"
       id="linearGradient4467">
      <stop
         style="stop-color:#a41417;stop-opacity:1"
         offset="0"
         id="stop4469" />
      <stop
         style="stop-color:#811314;stop-opacity:1"
         offset="1"
         id="stop4471" />
    </linearGradient>
    <linearGradient
       id="linearGradient4422"
       inkscape:collect="always">
      <stop
         id="stop4424"
         offset="0"
         style="stop-color:#af171c;stop-opacity:1" />
      <stop
         id="stop4426"
         offset="1"
         style="stop-color:#720508;stop-opacity:1" />
    </linearGradient>
    <linearGradient
       inkscape:collect="always"
       id="linearGradient4383">
      <stop
         style="stop-color:#b2151c;stop-opacity:1"
         offset="0"
         id="stop4385" />
      <stop
         style="stop-color:#890e11;stop-opacity:1"
         offset="1"
         id="stop4387" />
    </linearGradient>
    <linearGradient
       id="linearGradient4339"
       inkscape:collect="always">
      <stop
         id="stop4341"
         offset="0"
         style="stop-color:#ba151d;stop-opacity:1" />
      <stop
         id="stop4343"
         offset="1"
         style="stop-color:#880d0b;stop-opacity:1" />
    </linearGradient>
    <linearGradient
       inkscape:collect="always"
       id="linearGradient4270">
      <stop
         style="stop-color:#b81c16;stop-opacity:1"
         offset="0"
         id="stop4272" />
      <stop
         style="stop-color:#9d1218;stop-opacity:1"
         offset="1"
         id="stop4274" />
    </linearGradient>
    <linearGradient
       id="linearGradient4213"
       inkscape:collect="always">
      <stop
         id="stop4215"
         offset="0"
         style="stop-color:#c51a23;stop-opacity:1" />
      <stop
         id="stop4217"
         offset="1"
         style="stop-color:#a4131a;stop-opacity:1" />
    </linearGradient>
    <linearGradient
       inkscape:collect="always"
       id="linearGradient4183">
      <stop
         style="stop-color:#7c1111;stop-opacity:1"
         offset="0"
         id="stop4185" />
      <stop
         style="stop-color:#bf191e;stop-opacity:1"
         offset="1"
         id="stop4187" />
    </linearGradient>
    <style
       id="style2422"
       type="text/css" />
    <clipPath
       id="id3">
      <path
         id="path2428"
         d="M 0,792 612,792 612,0 0,0 0,792 Z"
         inkscape:connector-curvature="0" />
    </clipPath>
    <radialGradient
       inkscape:collect="always"
       xlink:href="#linearGradient4183"
       id="radialGradient4191"
       cx="349.10602"
       cy="279.68295"
       fx="349.10602"
       fy="279.68295"
       r="71.928978"
       gradientTransform="matrix(-0.12352981,-1.9182902,1.1962081,-0.07703075,-63.283215,1042.4067)"
       gradientUnits="userSpaceOnUse" />
    <linearGradient
       inkscape:collect="always"
       xlink:href="#linearGradient4307"
       id="linearGradient4305"
       x1="477.79733"
       y1="172.26552"
       x2="481.99753"
       y2="332.06552"
       gradientUnits="userSpaceOnUse" />
    <linearGradient
       id="linearGradient4307"
       inkscape:collect="always">
      <stop
         id="stop4309"
         offset="0"
         style="stop-color:#b8161c;stop-opacity:1" />
      <stop
         id="stop4311"
         offset="1"
         style="stop-color:#7a0a0b;stop-opacity:1" />
    </linearGradient>
    <linearGradient
       inkscape:collect="always"
       xlink:href="#linearGradient4213"
       id="linearGradient4211"
       x1="284.1557"
       y1="208.58548"
       x2="195.94324"
       y2="338.08548"
       gradientUnits="userSpaceOnUse"
       gradientTransform="translate(50.5,9)" />
    <linearGradient
       inkscape:collect="always"
       xlink:href="#linearGradient4270"
       id="linearGradient4211-0"
       x1="233.59756"
       y1="215.30299"
       x2="248.6227"
       y2="331.36795"
       gradientUnits="userSpaceOnUse"
       gradientTransform="translate(115.60498,-3.8459968)" />
    <linearGradient
       inkscape:collect="always"
       xlink:href="#linearGradient4339"
       id="linearGradient4211-0-5"
       x1="280.97372"
       y1="202.57507"
       x2="187.81151"
       y2="350.81339"
       gradientUnits="userSpaceOnUse"
       gradientTransform="translate(189.73598,-24.923334)" />
    <linearGradient
       inkscape:collect="always"
       xlink:href="#linearGradient4383"
       id="linearGradient4211-0-5-0"
       x1="243.87358"
       y1="218.07964"
       x2="222.21347"
       y2="353.91431"
       gradientUnits="userSpaceOnUse"
       gradientTransform="matrix(1.0482673,0,0,1.1401587,307.94336,-89.930871)" />
    <linearGradient
       inkscape:collect="always"
       xlink:href="#linearGradient4422"
       id="linearGradient4211-0-5-0-7"
       x1="307.2811"
       y1="200.71452"
       x2="201.97702"
       y2="355.15466"
       gradientUnits="userSpaceOnUse"
       gradientTransform="matrix(1.0482673,0,0,1.1401587,371.79757,-93.918427)" />
    <linearGradient
       inkscape:collect="always"
       xlink:href="#linearGradient4467"
       id="linearGradient4211-0-5-0-7-5"
       x1="307.2811"
       y1="33.193985"
       x2="209.60866"
       y2="189.38826"
       gradientUnits="userSpaceOnUse"
       gradientTransform="matrix(1.0482673,0,0,1.1401587,414.3493,89.371345)" />
    <linearGradient
       inkscape:collect="always"
       xlink:href="#linearGradient4537"
       id="linearGradient4211-0-5-0-7-5-9"
       x1="307.2811"
       y1="33.193985"
       x2="205.31586"
       y2="198.15897"
       gradientUnits="userSpaceOnUse"
       gradientTransform="matrix(1.0482673,0,0,1.1401587,459.43369,82.973171)" />
  </defs>
  <sodipodi:namedview
     pagecolor="#ffffff"
     bordercolor="#666666"
     borderopacity="1"
     objecttolerance="10"
     gridtolerance="10"
     guidetolerance="10"
     inkscape:pageopacity="0"
     inkscape:pageshadow="2"
     inkscape:window-width="1366"
     inkscape:window-height="705"
     id="namedview4"
     showgrid="false"
     inkscape:zoom="11.463417"
     inkscape:cx="186.89478"
     inkscape:cy="200.97245"
     inkscape:window-x="-8"
     inkscape:window-y="-8"
     inkscape:window-maximized="1"
     inkscape:current-layer="layer5"
     fit-margin-left="10"
     fit-margin-top="10"
     fit-margin-bottom="10"
     fit-margin-right="10" />
  <g
     inkscape:groupmode="layer"
     id="layer1"
     inkscape:label="D1"
     style="display:inline"
     transform="translate(-133.96401,-106.51235)">
    <path
       id="path4181-4"
       style="fill:#4d0000;fill-opacity:1;fill-rule:evenodd;stroke:none;stroke-width:1px;stroke-linecap:butt;stroke-linejoin:miter;stroke-opacity:1"
       d="m 249.43479,230.26262 c 0.60761,-0.0398 13.70945,0.47778 8.30426,4.1918 2.10385,0.60715 2.45256,2.74225 2.27532,4.42883 -0.17725,1.68658 -8.18007,4.40831 -8.18007,4.40831 l -8.95198,2.62798 -47.47098,111.62661 c 0,0 -4.45198,-1.98816 -10.43177,1.89261 l 48.07045,-124.8662 c 0,0 12.54694,-2.78528 16.38477,-4.30994 z"
       inkscape:connector-curvature="0"
       sodipodi:nodetypes="ccscccccc" />
    <path
       inkscape:connector-curvature="0"
       style="fill:#4d0000;fill-opacity:1;fill-rule:evenodd;stroke:none;stroke-width:1px;stroke-linecap:butt;stroke-linejoin:miter;stroke-opacity:1"
       d="m 195.94474,396.30632 c -2.03008,0.86287 -16.31081,7.0936 -26.90824,9.36346 -10.59742,2.26986 -21.28657,3.7174 -21.28657,3.7174 l -3.6045,-6.72301 c 0,0 12.21205,-6.72531 21.93776,-9.29591 9.72571,-2.5706 17.14182,-2.66985 25.9454,-6.6659 9.61423,-4.36401 20.27622,-14.12902 29.31953,-25.56429 9.0433,-11.43527 16.38709,-27.31957 16.38709,-27.31957 -2.88448,-36.27481 35.4277,-106.08686 49.20467,-128.87155 0.95484,1.56923 8.42475,14.2435 3.41994,25.82159 -14.51929,39.76092 -42.78299,103.19694 -46.96509,112.64306 -4.09869,9.25774 -12.39182,20.63561 -24.42885,35.19036 -4.74396,5.73622 -15.92123,14.6866 -23.02114,17.70436 z"
       id="path4181-7"
       sodipodi:nodetypes="ssccssscccsss" />
    <path
       style="fill:url(#radialGradient4191);fill-opacity:1;fill-rule:evenodd;stroke:#f51f2a;stroke-width:1px;stroke-linecap:butt;stroke-linejoin:miter;stroke-opacity:1"
       d="m 273.22852,196.07812 c -3.67188,-0.1049 -6.69186,0.73449 -7.36329,0.90235 -1.34286,0.33571 -59.38085,18.9668 -59.38085,18.9668 l 2.30859,30.38281 -64.06641,156.24414 c 0,0 9.89929,-0.53292 19.625,-3.10352 9.72571,-2.5706 17.26052,-4.80632 26.53886,-8.92106 9.65177,-4.28035 23.12486,-16.97765 32.16817,-28.41292 9.0433,-11.43527 13.89453,-20.91016 13.89453,-20.91016 L 284.16016,230.2168 c 0,0 6.88236,-22.15714 0.33593,-29.375 -3.27321,-3.60893 -7.5957,-4.65877 -11.26757,-4.76368 z m -24.74024,39.59376 c 0.60761,-0.0398 1.18734,0.003 1.7168,0.15624 4.2077,1.21429 1.89844,10.20704 1.89844,10.20704 l -37.03125,87.12109 c 0,0 -1.31188,4.99124 -9.97071,14.71875 -8.65883,9.72751 -15.66797,8.7832 -15.66797,8.7832 l 49.13868,-116.32031 c 0,0 5.66275,-4.38763 9.91601,-4.66601 z"
       id="path4181"
       inkscape:connector-curvature="0"
       sodipodi:nodetypes="sscccsssccssssccsccs" />
  </g>
  <g
     inkscape:groupmode="layer"
     id="layer4"
     inkscape:label="D2"
     style="display:inline;opacity:1"
     transform="translate(-133.96401,-106.51235)">
    <g
       style="display:inline"
       id="g4296"
       transform="translate(4.0918417,1.770327)">
      <path
         sodipodi:nodetypes="ccscccccc"
         inkscape:connector-curvature="0"
         d="m 503.36898,186.7782 c 0.52692,-0.0357 14.02526,-2.42002 9.3379,0.9118 1.82445,0.54467 -0.01,5.30867 -0.16332,6.82169 -0.15371,1.51302 -4.2451,1.5808 -4.2451,1.5808 l -8.59398,2.12015 -43.18445,102.75046 c 0,0 -3.86075,-1.78356 -9.0464,1.69784 l 41.68654,-112.01633 c 0,0 10.88066,-2.49865 14.20881,-3.86641 z"
         style="display:inline;fill:#4d0000;fill-opacity:1;fill-rule:evenodd;stroke:none;stroke-width:1px;stroke-linecap:butt;stroke-linejoin:miter;stroke-opacity:1"
         id="path4181-4-4" />
      <path
         sodipodi:nodetypes="sscccscsss"
         id="path4181-7-4"
         d="m 474.21737,321.43283 c -4.39589,2.01958 -7.91795,3.40075 -15.99752,4.15989 -10.79026,1.01384 -31.69371,3.38168 -31.69371,3.38168 l -2.59737,-7.39443 c 45.75416,-22.21966 61.80984,-34.53983 113.92797,-159.99709 0,0 5.29791,6.71513 6.05004,11.40421 0.75213,4.68908 -0.42762,11.46011 -2.93002,17.24915 -15.02286,37.57877 -36.50735,89.64275 -40.62725,99.11616 -2.42012,5.56488 -1.94392,5.74269 -13.18243,20.9225 -4.74396,6.40765 -7.99147,8.87999 -12.94971,11.15793 z"
         style="display:inline;fill:#4d0000;fill-opacity:1;fill-rule:evenodd;stroke:none;stroke-width:1px;stroke-linecap:butt;stroke-linejoin:miter;stroke-opacity:1"
         inkscape:connector-curvature="0" />
      <path
         sodipodi:nodetypes="sscccsssccssssccsccs"
         inkscape:connector-curvature="0"
         id="path4181-5"
         d="m 534.13679,160.05121 c -3.66143,-0.29594 -8.82833,0.14102 -9.49976,0.30888 -1.34286,0.33571 -48.10502,12.43869 -48.10502,12.43869 l -2.9139,25.87248 -49.34849,122.77273 c 0,0 11.01038,-0.79597 21.04932,-1.44181 10.43787,-0.67152 16.78575,-1.95769 26.06409,-6.07243 9.65177,-4.28035 5.26905,-0.56022 14.839,-11.55853 7.02901,-8.07813 15.83086,-31.71122 15.83086,-31.71122 l 37.67436,-90.95065 c 0,0 2.69089,-7.65868 -0.7323,-15.84401 -1.09279,-2.61302 -3.56014,-3.70922 -4.85816,-3.81413 z M 506.904,188.48783 c 0.60761,-0.0398 1.8995,0.003 2.42896,0.15624 4.2077,1.21429 1.42367,5.45932 1.42367,5.45932 l -31.54258,77.15089 c 0,0 -0.81443,7.28463 -9.81972,16.69231 -5.13383,5.36322 -14.66083,3.96101 -14.66083,3.96101 l 41.06756,-100.17807 c 0,0 6.84968,-2.96332 11.10294,-3.2417 z"
         style="display:inline;fill:url(#linearGradient4305);fill-opacity:1;fill-rule:evenodd;stroke:#f51f2a;stroke-width:1px;stroke-linecap:butt;stroke-linejoin:miter;stroke-opacity:1" />
    </g>
  </g>
  <g
     inkscape:groupmode="layer"
     id="layer3"
     inkscape:label="Marvel Logo"
     style="display:inline"
     transform="translate(-133.96401,-106.51235)">
    <g
       style="display:inline"
       transform="matrix(0.18233356,0,0,-0.18233354,276.36526,254.77388)"
       id="g2505"
       clip-path="url(#id3)">
      <path
         style="fill:#f11e22;fill-rule:nonzero;stroke:none"
         id="path2507"
         d="m 508.58,320.64368 -410.979,0 0,167.5789 410.979,0 0,-167.5789 z"
         inkscape:connector-curvature="0" />
      <path
         style="fill:#ffffff;fill-rule:nonzero;stroke:none"
         id="path2509"
         d="m 452.5,469.88836 23,0 0,-109 19.5,0 0,-27.5 -42.5,0 0,136.5 z"
         inkscape:connector-curvature="0" />
      <path
         style="fill:#ffffff;fill-rule:nonzero;stroke:none"
         id="path2515"
         d="m 294,404.88836 c 16.5,1 15,21.5 15,21.5 -2.5,20 -15,19 -15,19 l 0,-40.5 z m -53,-31.5 -7,41.5 -6,-41.5 13,0 z m -126.5,-39.5 0,136 31,0 11,-57 12.5,57 30,0 0,-122.5 19.5,122.5 30.5,0 19,-122.5 0,122 40.5,0 c 0,0 14,-2.5 21,-22 l -3,22.5 24.5,0 11.5,-70.5 12,70 69,0 0,-25.5 -20.5,0 0,-28 19.5,0 0,-28.5 -19,0 0,-26 20,0 0,-27.5 -44.5,0 0,131 -23,-131 -27.5,0 -14.5,87 c 0,0 -2.5,-24 -16,-35 l 17.5,-52 -24,0 -17,45.5 0,-45.5 -48.5,0 -2.5,13 -18.5,0 -4,-13 -46,0 0,50 -12,-50 -12.5,0 -11,49.5 0,-49 -25,-0.5 z"
         inkscape:connector-curvature="0" />
    </g>
  </g>
  <g
     inkscape:groupmode="layer"
     id="layer5"
     inkscape:label="A"
     style="display:inline"
     transform="translate(-133.96401,-106.51235)">
    <path
       id="path4181-4-7"
       style="display:inline;fill:#4d0000;fill-opacity:1;fill-rule:evenodd;stroke:none;stroke-width:1px;stroke-linecap:butt;stroke-linejoin:miter;stroke-opacity:1"
       d="m 265.24544,354.10154 -18.66847,3.10025 -3.01472,-8.23698 61.22714,-110.35972 8.51381,0.14267 -24.17794,60.28932 -3.89882,31.61322 -9.86666,1.67587 z"
       inkscape:connector-curvature="0"
       sodipodi:nodetypes="ccccccccc" />
    <path
       inkscape:connector-curvature="0"
       style="display:inline;fill:#4d0000;fill-opacity:1;fill-rule:evenodd;stroke:none;stroke-width:1px;stroke-linecap:butt;stroke-linejoin:miter;stroke-opacity:1"
       d="m 283.29255,351.47589 -4.16551,-7.72136 7.20341,-23.09462 40.38709,-99.31957 11.54148,-7.37069 2.33466,6.15097 -37.1758,127.36194 z"
       id="path4181-7-5"
       sodipodi:nodetypes="cccccccc" />
    <path
       style="display:inline;fill:url(#linearGradient4211);fill-opacity:1;fill-rule:evenodd;stroke:#f51f2a;stroke-width:1px;stroke-linecap:butt;stroke-linejoin:miter;stroke-opacity:1"
       d="m 337.68713,214.5 -41.72042,11.71911 -51.99776,122.54702 18.23994,-2.92007 9.66386,-20.52458 14.41817,-3.16292 -6.60547,21.33984 20.20704,-4.75976 c 0,0 24.72879,-82.96545 37.79464,-124.23864 z m -43.77121,83.43004 18.56934,-57.78516 -5.43066,0.21485 -25.8705,59.46719 z"
       id="path4181-3"
       inkscape:connector-curvature="0"
       sodipodi:nodetypes="cccccccccccccc" />
  </g>
  <g
     inkscape:groupmode="layer"
     id="layer6"
     inkscape:label="R"
     transform="translate(-133.96401,-106.51235)">
    <path
       id="path4181-4-7-2"
       style="display:inline;fill:#4d0000;fill-opacity:1;fill-rule:evenodd;stroke:none;stroke-width:1px;stroke-linecap:butt;stroke-linejoin:miter;stroke-opacity:1"
       d="m 330.17364,342.13943 -20.96657,3.10025 -2.66117,-7.35309 59.10582,-122.73409 24.07016,2.9711 -8.62159,10.43829 -9.73245,1.3844 z"
       inkscape:connector-curvature="0"
       sodipodi:nodetypes="cccccccc" />
    <path
       inkscape:connector-curvature="0"
       style="display:inline;fill:#4d0000;fill-opacity:1;fill-rule:evenodd;stroke:none;stroke-width:1px;stroke-linecap:butt;stroke-linejoin:miter;stroke-opacity:1"
       d="m 371.15362,337.34069 -23.09318,2.63156 -3.78448,-7.89075 25.01228,-69.9365 39.75734,-65.85279 c 0,0 3.5433,4.06475 4.4386,6.54371 0.75002,2.07671 1.35451,4.81762 0.6425,6.59277 l -22.43313,55.92944 c 0,0 -2.00376,4.22734 -3.55812,5.92944 -3.53767,3.87392 -7.30813,5.42944 -7.30813,5.42944 l -9.43313,4.92944 z"
       id="path4181-7-5-5"
       sodipodi:nodetypes="cccccsscsccc" />
    <path
       style="display:inline;fill:url(#linearGradient4211-0);fill-opacity:1;fill-rule:evenodd;stroke:#f51f2a;stroke-width:1px;stroke-linecap:butt;stroke-linejoin:miter;stroke-opacity:1"
       d="m 399.61012,194.9365 -52.68058,15.25464 -1.07336,20.08454 -38.90358,107.41223 19.83093,-3.27363 18.50269,-51.28372 -0.43107,48.63265 21.6788,-3.05534 0.40805,-53.90369 11.87631,-5.80645 c 0,0 4.67081,-3.47322 6.43539,-5.74319 2.38393,-3.06672 5.37473,-10.33939 5.37473,-10.33939 l 18.80976,-46.31344 c 0,0 1.70417,-7.88103 -0.6714,-10.4288 -2.10038,-2.25263 -9.15667,-1.23641 -9.15667,-1.23641 z m -37.05369,62.57038 c 0,0 4.33954,-1.75516 5.96816,-3.35355 1.55893,-1.52999 3.3165,-5.65164 3.3165,-5.65164 l 7.69368,-19.08148 c 0,0 1.59659,-4.75126 0.58688,-6.6638 -0.69794,-1.32202 -2.16081,-2.59849 -3.65576,-2.59794 -2.69347,9.9e-4 -8.01863,1.87519 -8.01863,1.87519 l -13.14257,35.95589 z"
       id="path4181-3-3"
       inkscape:connector-curvature="0"
       sodipodi:nodetypes="ccccccccccsccsccaccssccc" />
  </g>
  <g
     inkscape:groupmode="layer"
     id="layer7"
     inkscape:label="E1"
     transform="translate(-133.96401,-106.51235)">
    <path
       id="path4181-4-7-2-8"
       style="display:inline;fill:#4d0000;fill-opacity:1;fill-rule:evenodd;stroke:none;stroke-width:1px;stroke-linecap:butt;stroke-linejoin:miter;stroke-opacity:1"
       d="m 377.00102,336.15908 -2.72183,-7.74085 54.75236,-30.49444 3.19091,6.31329 -14.66995,27.6344 z"
       inkscape:connector-curvature="0"
       sodipodi:nodetypes="cccccc" />
    <path
       id="path4181-4-7-2-8-6"
       style="display:inline;fill:#4d0000;fill-opacity:1;fill-rule:evenodd;stroke:none;stroke-width:1px;stroke-linecap:butt;stroke-linejoin:miter;stroke-opacity:1"
       d="m 454.82363,231.15379 2.95398,6.45332 -18.71705,27.15665 -13.92102,2.20332 -13.04495,34.6344 c -20.29504,1.23936 7.16482,-63.05361 42.72904,-70.44769 z"
       inkscape:connector-curvature="0"
       sodipodi:nodetypes="cccccc" />
    <path
       id="path4181-4-7-2-8-6-3"
       style="display:inline;fill:#4d0000;fill-opacity:1;fill-rule:evenodd;stroke:none;stroke-width:1px;stroke-linecap:butt;stroke-linejoin:miter;stroke-opacity:1"
       d="m 476.82778,182.00474 -10.7479,26.19576 -18.62813,4.02654 -9.27458,22.2856 c -24.88422,9.37113 4.38689,-51.16344 35.60408,-59.63786 z"
       inkscape:connector-curvature="0"
       sodipodi:nodetypes="cccccc" />
    <path
       style="display:inline;fill:url(#linearGradient4211-0-5);fill-opacity:1;fill-rule:evenodd;stroke:#f51f2a;stroke-width:1px;stroke-linecap:butt;stroke-linejoin:miter;stroke-opacity:1"
       d="m 473.21079,175.45015 -52.15025,12.95654 -6.37666,30.51437 -39.61069,109.00322 38.21571,-3.62718 14.79038,-25.82788 -21.4675,1.9636 15.31484,-41.2391 14.01986,-1.04746 18.16339,-26.33191 -22.49525,3.72013 11.2245,-30.38995 19.16331,-4.59414 z"
       id="path4181-3-3-2"
       inkscape:connector-curvature="0"
       sodipodi:nodetypes="cccccccccccccc" />
  </g>
  <g
     inkscape:groupmode="layer"
     id="layer8"
     inkscape:label="E2"
     style="display:inline"
     transform="translate(-133.96401,-106.51235)">
    <path
       id="path4181-4-7-2-8-1"
       style="display:inline;fill:#4d0000;fill-opacity:1;fill-rule:evenodd;stroke:none;stroke-width:1px;stroke-linecap:butt;stroke-linejoin:miter;stroke-opacity:1"
       d="m 499.8722,324.63537 -1.97821,-7.0758 64.64511,-33.1435 3.09493,6.44816 -19.87803,31.3826 z"
       inkscape:connector-curvature="0"
       sodipodi:nodetypes="cccccc" />
    <path
       id="path4181-4-7-2-8-6-5"
       style="display:inline;fill:#4d0000;fill-opacity:1;fill-rule:evenodd;stroke:none;stroke-width:1px;stroke-linecap:butt;stroke-linejoin:miter;stroke-opacity:1"
       d="m 591.4511,206.91268 2.72156,5.98281 -22.87048,34.08789 -12.59295,0.76213 -16.17459,37.61371 c -26.77463,14.53807 15.88565,-73.01612 48.91646,-78.44654 z"
       inkscape:connector-curvature="0"
       sodipodi:nodetypes="cccccc" />
    <path
       id="path4181-4-7-2-8-6-5-7"
       style="display:inline;fill:#4d0000;fill-opacity:1;fill-rule:evenodd;stroke:none;stroke-width:1px;stroke-linecap:butt;stroke-linejoin:miter;stroke-opacity:1"
       d="m 616.08923,150.44045 -12.94225,30.70442 -16.43125,2.50681 -10.42591,24.66437 c -26.52163,21.16793 3.56584,-57.00642 36.06085,-64.96112 z"
       inkscape:connector-curvature="0"
       sodipodi:nodetypes="cccccc" />
    <path
       style="display:inline;fill:url(#linearGradient4211-0-5-0);fill-opacity:1;fill-rule:evenodd;stroke:#f51f2a;stroke-width:1.09324801px;stroke-linecap:butt;stroke-linejoin:miter;stroke-opacity:1"
       d="m 611.85075,144.02669 -54.9174,11.77251 -0.68444,25.29123 -58.0226,136.03096 43.81028,-2.13556 19.75428,-30.19788 -25.75368,0.48882 18.80404,-45.51912 12.94657,-0.44427 22.29008,-32.27256 -20.83103,2.99154 14.26628,-33.39936 14.83827,-2.23805 z"
       id="path4181-3-3-2-2"
       inkscape:connector-curvature="0"
       sodipodi:nodetypes="cccccccccccccc" />
  </g>
  <g
     inkscape:groupmode="layer"
     id="layer9"
     inkscape:label="V"
     transform="translate(-133.96401,-106.51235)">
    <path
       id="path4181-4-7-2-8-1-9"
       style="display:inline;fill:#4d0000;fill-opacity:1;fill-rule:evenodd;stroke:none;stroke-width:1px;stroke-linecap:butt;stroke-linejoin:miter;stroke-opacity:1"
       d="m 565.03114,320.93245 -3.39242,-6.89902 144.63042,-187.08097 3.58591,6.54885 -100.35432,185.92649 z"
       inkscape:connector-curvature="0"
       sodipodi:nodetypes="cccccc" />
    <path
       id="path4181-4-7-2-8-6-3-2-4"
       style="display:inline;fill:#4d0000;fill-opacity:1;fill-rule:evenodd;stroke:none;stroke-width:1px;stroke-linecap:butt;stroke-linejoin:miter;stroke-opacity:1"
       d="m 652.17645,143.06791 -43.37586,123.6097 c -12.49737,3.49979 13.12161,-122.95755 40.34604,-129.00618 z"
       inkscape:connector-curvature="0"
       sodipodi:nodetypes="cccc" />
    <path
       style="display:inline;fill:url(#linearGradient4211-0-5-0-7);fill-opacity:1;fill-rule:evenodd;stroke:#f51f2a;stroke-width:1.09324801px;stroke-linecap:butt;stroke-linejoin:miter;stroke-opacity:1"
       d="m 648.53757,137.81163 -27.68444,5.47142 -58.7726,170.85078 44.20673,-1.0749 98.92033,-185.41479 -29.31618,4.02007 -71.19596,132.10588 z"
       id="path4181-3-3-2-2-5"
       inkscape:connector-curvature="0"
       sodipodi:nodetypes="cccccccc" />
  </g>
  <g
     inkscape:groupmode="layer"
     id="layer10"
     inkscape:label="I"
     style="display:inline"
     transform="translate(-133.96401,-106.51235)">
    <path
       id="path4181-4-7-2-8-1-9-1"
       style="display:inline;fill:#4d0000;fill-opacity:1;fill-rule:evenodd;stroke:none;stroke-width:1px;stroke-linecap:butt;stroke-linejoin:miter;stroke-opacity:1"
       d="m 631.31778,319.07814 -3.87097,-6.87757 117.92641,-190.06656 3.72164,7.03813 -90.01733,189.81557 z"
       inkscape:connector-curvature="0"
       sodipodi:nodetypes="cccccc" />
    <path
       style="display:inline;fill:url(#linearGradient4211-0-5-0-7-5);fill-opacity:1;fill-rule:evenodd;stroke:#f51f2a;stroke-width:1.09324801px;stroke-linecap:butt;stroke-linejoin:miter;stroke-opacity:1"
       d="m 744.3393,122.85141 -28.93444,4.22142 -87.2726,184.60077 27.20673,0.4251 z"
       id="path4181-3-3-2-2-5-8"
       inkscape:connector-curvature="0"
       sodipodi:nodetypes="ccccc" />
  </g>
  <g
     inkscape:groupmode="layer"
     id="layer11"
     inkscape:label="L"
     style="display:inline"
     transform="translate(-133.96401,-106.51235)">
    <path
       id="path4181-4-7-2-8-1-9-1-3"
       style="display:inline;fill:#4d0000;fill-opacity:1;fill-rule:evenodd;stroke:none;stroke-width:1px;stroke-linecap:butt;stroke-linejoin:miter;stroke-opacity:1"
       d="m 672.0792,318.7431 -3.99597,-6.98025 67.92641,-34.71388 3.34664,6.91023 -24.39233,34.37793 z"
       inkscape:connector-curvature="0"
       sodipodi:nodetypes="cccccc" />
    <path
       id="path4181-4-7-2-8-1-9-1-3-5"
       style="display:inline;fill:#4d0000;fill-opacity:1;fill-rule:evenodd;stroke:none;stroke-width:1px;stroke-linecap:butt;stroke-linejoin:miter;stroke-opacity:1"
       d="m 790.60526,116.51235 4.19511,6.96661 -76.49101,154.06524 c -32.18374,6.71907 52.01304,-127.88878 72.2959,-161.03185 z"
       inkscape:connector-curvature="0"
       sodipodi:nodetypes="cccc" />
    <path
       style="display:inline;fill:url(#linearGradient4211-0-5-0-7-5-9);fill-opacity:1;fill-rule:evenodd;stroke:#f51f2a;stroke-width:1.09324801px;stroke-linecap:butt;stroke-linejoin:miter;stroke-opacity:1"
       d="m 789.67369,117.45324 -29.18444,3.22142 -91.5226,190.60077 42.08173,0.6751 24.03133,-33.99932 -22.46867,-0.99932 z"
       id="path4181-3-3-2-2-5-8-8"
       inkscape:connector-curvature="0"
       sodipodi:nodetypes="ccccccc" />
  </g>
</svg>
